<svg width="1252" height="624" viewBox="0 0 1252 624" fill="none" xmlns="http://www.w3.org/2000/svg">
<g clip-path="url(#clip0_23_754)">
<path d="M1252.48 -1H619V622.194H1252.48V-1Z" fill="#252122"/>
<path d="M618.177 -1H0V622.193H618.177V-1Z" fill="white"/>
<path d="M951.171 222.622L940.139 211.857C960.063 191.944 979.987 172.03 999.911 152.117C1058.44 152.119 1116.96 152.121 1175.49 152.123C1148.36 179.233 1121.22 206.342 1094.09 233.452C1050.13 233.43 1006.17 233.409 962.202 233.387L951.171 222.622V222.622Z" fill="#E75D53"/>
<path d="M869.448 153.281C910.617 112.521 951.786 71.7603 992.955 31C993.126 68.8846 993.297 106.769 993.468 144.654C962.216 175.906 930.964 207.159 899.713 238.412C889.625 238.412 879.536 238.412 869.448 238.412C869.448 210.035 869.448 181.658 869.448 153.281V153.281Z" fill="#F0A33A"/>
<path d="M779.174 247.822C779.174 189.639 779.174 131.455 779.174 73.2708C805.958 100.046 832.743 126.821 859.528 153.596V285.56C852.411 292.654 845.294 299.748 838.177 306.842C818.509 287.169 798.842 267.496 779.174 247.822V247.822Z" fill="#F5C825"/>
<path d="M1009.32 273.616V257.998V242.38C1037.45 242.38 1065.58 242.38 1093.71 242.38C1131.77 281.393 1170.88 319.394 1208.66 358.679L1216 366.366C1178.02 366.366 1140.05 366.366 1102.07 366.366C1071.15 335.45 1040.24 304.533 1009.32 273.616V273.616Z" fill="#D1438F"/>
<path d="M656 253.29C694.25 253.29 732.499 253.29 770.749 253.29C801.995 284.537 833.242 315.785 864.488 347.032C864.488 357.114 864.488 367.195 864.488 377.277C835.884 377.272 807.281 377.268 778.678 377.263C736.011 334.145 699.75 297.503 656 253.29V253.29Z" fill="#57AB36"/>
<path d="M778.668 387.196C822.993 387.196 867.318 387.196 911.642 387.196C918.737 394.312 925.832 401.428 932.927 408.544C912.921 428.539 892.914 448.535 872.908 468.531C814.385 468.531 755.863 468.531 697.34 468.531C724.45 441.419 751.559 414.308 778.668 387.196Z" fill="#00A4C1"/>
<path d="M1013.29 467.034C1013.29 423.383 1013.29 379.732 1013.29 336.081C1020.74 328.656 1028.19 321.23 1035.63 313.805C1055.31 333.482 1074.98 353.159 1094.65 372.837C1094.48 431.188 1094.31 489.54 1094.14 547.892C1067.19 520.939 1040.24 493.987 1013.29 467.034V467.034Z" fill="#635FAA"/>
<path d="M879.368 476.019C910.608 444.758 941.847 413.497 973.086 382.236C983.512 382.236 993.938 382.236 1004.36 382.236C1004.36 410.508 1004.36 438.779 1004.36 467.051C962.71 508.379 921.305 549.959 879.368 591C879.368 552.673 879.368 514.346 879.368 476.019V476.019Z" fill="#008FD0"/>
<path d="M344.233 510.388C343.954 501.187 342.733 434.175 341.519 361.472C340.304 288.769 339.098 220.152 338.837 208.99C338.576 197.828 338.698 189.683 339.107 190.89C339.517 192.096 350.078 268.241 362.576 360.1L385.301 527.117H410.06H434.82L435.304 524.649C435.57 523.291 446.097 448.134 458.698 357.632C471.298 267.13 481.934 192.116 482.333 190.933C482.731 189.751 482.909 194.193 482.727 200.806C482.545 207.419 481.195 276.016 479.726 353.244C478.258 430.472 476.817 501.187 476.524 510.388L475.991 527.117H507.953H539.915V311.559V96L493.167 96.0011L446.419 96.0022L428.633 223.247C418.85 293.232 410.639 350.495 410.386 350.497C410.133 350.499 404.663 311.627 398.231 264.113C391.798 216.6 384.037 159.337 380.985 136.863L375.435 96H328.15H280.865V311.559V527.117H312.802H344.739L344.233 510.388Z" fill="#252122"/>
<path d="M261.71 488.723V450.328H209.261C163.608 450.328 156.813 450.118 156.813 448.707C156.813 446.129 161.049 433.292 163.785 427.579C172.637 409.099 181.221 395.757 206.899 360.572C232.755 325.143 243.114 307.545 250.486 286.523C256.713 268.766 259.369 254.188 260.799 229.929C262.99 192.764 257.291 158.925 245.171 137.132C230.101 110.034 206.55 96.8238 173.231 96.7784C123.5 96.7107 93.3563 127.014 82.8266 187.661C81.3295 196.284 80.8336 204.141 80.4591 225.171L79.9854 251.773H111.87H143.754L144.351 231.753C144.679 220.742 145.373 208.524 145.893 204.602C149.256 179.253 157.897 167.325 171.915 168.678C178.994 169.362 183.004 172.197 186.97 179.322C191.146 186.824 192.565 193.764 193.06 209.102C193.84 233.3 190.584 251.349 182.294 268.774C180.125 273.332 170.997 288.032 162.009 301.44C131.147 347.479 116.927 372.036 104.719 400.377C88.2098 438.703 80.7319 471.063 79.5508 509.291L79 527.117H170.355H261.71V488.723Z" fill="#252122"/>
</g>
<rect x="4.5" y="4.5" width="1242.65" height="614.196" stroke="#252122" stroke-width="9"/>
<defs>
<clipPath id="clip0_23_754">
<rect width="1251.65" height="623.196" fill="white"/>
</clipPath>
</defs>
</svg>
