<?xml version="1.0" encoding="utf-8"?>
<!-- Generator: Adobe Illustrator 19.2.1, SVG Export Plug-In . SVG Version: 6.00 Build 0)  -->
<svg version="1.1" id="layer" xmlns="http://www.w3.org/2000/svg" xmlns:xlink="http://www.w3.org/1999/xlink" x="0px" y="0px"
	 viewBox="0 0 652 652" style="enable-background:new 0 0 652 652;" xml:space="preserve">
<style type="text/css">
	.st0{fill:#D71823;}
	.st1{fill:#221F20;}
</style>
<path class="st0" d="M49.5,262.8l-29.3,2.4v2.9l11.9,3.1v97.3L21,372.7v2.9h39.7v-2.9l-11.2-4.1V262.8z M82.2,356.6
	c0,7.1,2.3,14.1,10.7,14.1c4.9,0,13.8-3.3,15.3-15.3c0.7-4.9,0.5-9.9,0.5-14.8c-6,0-10.9,0.2-15.3,1.3
	C89.3,343.1,82.2,346,82.2,356.6 M98.3,305.6c6,0,17.6,0.7,23.3,7.3c4.6,5.4,4.6,10.7,4.6,18.2v37.5l11.9,3.7v3.1
	c-6.7,0-28.2,1.8-28.2,1.8l-1.3-12.7c-3.4,9.3-14,13.6-23.1,13.6c-11.6,0-21.3-7.3-21.3-19.5c0-13.3,13.4-20.5,26.1-22.4
	c5.1-0.8,11.2-1.3,18.6-1.3v-10.4c0-8.3-5.7-13.5-13.8-13.5c-9.9,0-15,10.9-18.4,17.1l-8.8-11.7C77.4,308,86.4,305.6,98.3,305.6"/>
<path class="st1" d="M145,375.6v-3.1l14-4.7V281c0,0-10.6-0.2-26.1,0.5l-5.7,12.8l-3.7-0.3c0.2-2.3,1-10.2,1.5-21
	c32.9,2,58.6,1,88.4,0.3c0,0,0.2,10.2,0.3,21.8l-3.6,0.2l-4.7-13.8c0,0-13.4-1-27.5-0.5v86.7l14,4.7v3.1L145,375.6L145,375.6z"/>
<path class="st1" d="M198.8,311.6v-2.9l26.4-2.8l1.6,10.9c5-7.5,11.2-11.5,20.5-11.5c4.1,0,8.1,1,11.4,3.2l-5.9,15.9
	c-2.9-4.7-5.9-9.4-12.5-9.4c-12.2,0-13.2,13.6-13.2,22.9v30.7l14.2,4.1v2.9h-42v-2.9l10.6-4.4v-53.6L198.8,311.6L198.8,311.6z
	 M292,279.2c0,5-4.7,10.1-10.1,10.1c-5.4,0-10.1-5-10.1-10.1c0-5,4.7-10.1,10.1-10.1S292,274.2,292,279.2z M262.9,311.3v-2.9
	l29.2-2.4v62.9l10.7,3.9v2.9H264v-2.9l10.7-3.9v-54.4L262.9,311.3L262.9,311.3z M327.5,366.3c3.1,3.6,9,6.2,13.8,6.2
	c17.6,0,18.4-21.9,18.4-34.4c0-15.4-3.4-26.2-13.5-26.2c-13.5,0-19.2,18.5-19.2,31.2C327.1,366.2,327.5,366.3,327.5,366.3z
	 M297.7,268.2v-2.9l29.8-2.4l-0.5,58.5c3.7-10.2,11.9-15.6,20.5-16.2c1.5-0.2,2.8-0.2,4.1-0.2c19.9,0,28.8,12.3,29,34.9
	c0.2,21.9-15.5,38.7-37.1,38.7c-15.1,0-29.2-4.2-33.9-5.7V271.3L297.7,268.2L297.7,268.2z M408.2,306.5c0,0-0.2,25.2-0.2,42.1
	c0,16.2,1.3,23.1,11.1,23.1c1.1,0,7.5-0.2,13-6.8c4.2-5,4.2-9.6,4.6-18.7c0.5-14.8,0-30.5,0-31.4l-10.7-3.4V308l28.7-1.5
	c0,0-0.5,43.9-0.2,62.1l11.7,2.9v2.9c-6,0-28,2.6-28,2.6l-1-10.1c-3.6,4.4-10.6,10.9-23,10.9c-16.6,0-23.9-4.6-23.9-24v-39.3
	l-10.4-3.7v-2.9C383.1,307.8,408.2,306.5,408.2,306.5 M498.1,316.8c3.1-4.2,9.6-12.5,23.8-12.5c21.2,0,23.9,8.1,23.9,25.2v39.5
	l12.1,3.7v2.9h-41.4v-2.9l11.1-3.7v-35.3c0-7.8-0.2-12.2-1.5-15.4c-2.1-5-4.9-7.3-10.9-7.3c-4.9,0-11.9,4.4-14.7,12.2
	c-1.6,4.6-2.1,7.2-2.1,15.1v30.7l10.1,3.7v2.9h-38.6v-2.9l10.6-3.7v-54.3l-11.1-3.1v-2.9l27.2-2.8L498.1,316.8L498.1,316.8z"/>
<path class="st1" d="M603.1,334.2v-0.8c0-7.8-2-23.2-12.9-23.2c-10.9,0-14.7,13.5-16,24H603.1L603.1,334.2z M574,343.7
	c0,13.8,2.9,28.4,19.9,28.4c4.7,0,11.9-2.1,22.2-11.9l3.3,4.1c-7.8,9.3-15.6,14.3-28,14.3c-22,0-36.6-11.9-36.6-36.4
	c0-21.3,12.7-37.2,35-37.2c19.2,0,30.6,14,30.6,32.5c0,1-0.2,1.8-0.2,2.8H574V343.7L574,343.7z"/>
</svg>
