<svg width="479" height="127" viewBox="0 0 479 127" fill="none" xmlns="http://www.w3.org/2000/svg">
<circle cx="63.5" cy="63.5" r="60.5" fill="white"/>
<path d="M70.3711 106.313C48.116 100.579 28.7554 101.323 19 104.157C24.5102 110 31.0924 114.793 38.425 118.185C41.6625 118.153 44.9214 118.218 48.1803 118.404C48.6306 118.426 49.0808 118.448 49.5311 118.481C49.9599 118.514 50.378 118.546 50.796 118.579C51.4714 118.634 52.1468 118.689 52.8222 118.743C53.1116 118.765 53.401 118.798 53.6905 118.831C54.6017 118.918 55.5129 119.028 56.4241 119.137C56.4992 119.137 56.5849 119.159 56.66 119.17C57.7427 119.301 58.8255 119.455 59.9082 119.619C60.0904 119.652 60.2727 119.684 60.4549 119.717C61.3661 119.87 62.2774 120.024 63.1671 120.199C63.5638 120.275 63.9711 120.352 64.3678 120.429C65.2361 120.604 66.0937 120.79 66.9621 120.976C67.348 121.063 67.7339 121.151 68.1306 121.238C69.0096 121.446 69.878 121.654 70.757 121.873C71.1429 121.971 71.5289 122.07 71.9148 122.168C72.7402 122.376 73.555 122.606 74.3912 122.825C74.6163 122.891 74.8307 122.945 75.0558 123C82.978 121.61 90.3857 118.689 97 114.542C88.5954 111.609 79.6333 108.698 70.3925 106.313H70.3711Z" fill="#006EAB"/>
<path d="M395.76 23.24C395.76 20.54 401.59 20.58 401.59 23.24V30.73C401.59 33.56 395.76 33.73 395.76 30.73V23.24Z" fill="white"/>
<path d="M170.71 22.34L159.05 38.09L147.8 22.9C147.07 21.81 145.89 21.12 144.58 21.03C142.78 21.2 141.43 22.75 141.51 24.56V53.37C141.51 55.62 142.94 56.9 144.58 56.9C144.64 56.9 144.7 56.9 144.75 56.9C146.7 56.89 148.27 55.3 148.26 53.35V34.43L155.88 45.17C157.57 47.42 159.87 47.42 161.71 45.17L170.2 34.43V53.35C170.19 53.48 170.18 53.61 170.18 53.75C170.22 55.52 171.69 56.92 173.47 56.88C175.1 56.88 176.54 55.6 176.54 53.35V24.59C176.56 23.6 176.14 22.65 175.39 22C174 20.8 171.91 20.95 170.71 22.34Z" fill="white"/>
<path d="M201.95 23.2999C201.6 22.4999 200.96 21.8699 200.17 21.5199C198.42 20.7499 196.38 21.5499 195.61 23.2999L180.93 51.9899C180.93 51.9899 180.9 52.0499 180.88 52.0799C180.01 53.8799 180.77 56.0299 182.57 56.8999C184.41 57.2299 186.3 56.8999 187.12 55.1599L189.32 50.6599H208.19L210.44 55.1599C212.28 59.1499 218.47 55.9899 216.37 51.9899L201.95 23.2999ZM192.49 43.8999L198.79 31.2699L204.57 43.8999H192.49Z" fill="white"/>
<path d="M242.14 43.26C252.99 38.92 250.34 21.53 237.34 21.53H223.74C223.74 21.53 223.69 21.53 223.67 21.53C221.98 21.56 220.64 22.96 220.67 24.65V53.65C220.67 58.15 227.47 58 227.47 53.55L227.5 44.38H235.5L243.22 55.38C246.29 59.27 251.61 55.48 248.95 51.55L242.14 43.26ZM237.34 38.42H227.47V27.68H237.34C244.4 27.68 243.99 38.42 237.34 38.42Z" fill="white"/>
<path d="M255.24 24.56V53.76C255.24 58.1 261.99 58 261.99 53.76V24.56C261.99 20.21 255.24 20.36 255.24 24.56Z" fill="white"/>
<path d="M296.14 21.03C294.31 21.2 292.9 22.72 292.87 24.56V44.4L275.95 23.23C274.57 21.9 274.16 21.44 272.32 21.44C269.66 21.44 269.25 23.23 269.25 25.07V53.35C269.25 53.44 269.25 53.53 269.25 53.63C269.31 55.49 270.87 56.95 272.73 56.88C274.57 56.88 275.95 55.6 275.95 53.35V33.61L292.87 55.11C293.9 56.31 295.43 56.97 297.01 56.9C298.69 56.58 299.87 55.06 299.77 53.35V24.56C299.6 22.65 298.06 21.15 296.14 21.03Z" fill="white"/>
<path d="M325.16 23.2799C324.81 22.4799 324.17 21.8499 323.38 21.4999C321.63 20.7299 319.59 21.5299 318.82 23.2799L304.14 51.9699C304.14 51.9699 304.1 52.0399 304.09 52.0799C303.22 53.8699 303.97 56.0299 305.76 56.8999C307.6 57.2299 309.49 56.8999 310.31 55.1399L312.51 50.6399H331.4L333.65 55.1399C335.49 59.1299 341.68 55.9699 339.58 51.9699L325.16 23.2799ZM315.68 43.8999L321.98 31.2699L327.76 43.8999H315.68Z" fill="white"/>
<path d="M373.67 21.5599H361.96C360.13 21.5199 358.59 22.9099 358.43 24.7299V53.7299C358.43 55.9799 360.27 56.8999 361.96 56.8999H374.14C396.53 56.8999 397.04 21.4899 373.67 21.5599ZM373.63 50.6399H365.14V27.7299H373.63C388.05 27.7299 387.43 50.6399 373.63 50.6399Z" fill="white"/>
<path d="M424.85 20.21C415.39 20.21 405.58 26.45 405.58 38.98C405.58 51.51 415.39 57.8 424.85 57.39C433.8 57.39 443.16 51.1 443.16 38.98C443.16 26.86 433.85 20.67 424.85 20.21ZM424.29 51.14C424.07 51.14 423.84 51.14 423.62 51.14C417.15 50.92 412.07 45.5 412.29 39.02C412.29 38.78 412.28 38.53 412.29 38.29C412.46 31.83 417.83 26.73 424.29 26.9C430.14 26.9 436.46 30.99 436.46 39.02C436.46 47.05 430.17 51.14 424.29 51.14Z" fill="white"/>
<path d="M477.35 51.51L470.55 43.22C481.39 38.88 478.74 21.49 465.74 21.49H452.14C452.14 21.49 452.05 21.49 452 21.49C450.31 21.55 448.99 22.96 449.04 24.65V53.65C449.04 58.15 455.84 58 455.84 53.55L455.9 44.34H463.9L471.62 55.34C474.69 59.23 480.01 55.44 477.35 51.51ZM465.71 38.42H455.84V27.68H465.71C472.77 27.68 472.36 38.42 465.71 38.42Z" fill="white"/>
<path d="M476.22 72.0799H143.33C142.24 71.8899 141.51 70.8499 141.71 69.7599C141.86 68.9299 142.51 68.2799 143.33 68.1399H476.22C477.31 68.3299 478.04 69.3699 477.84 70.4599C477.69 71.2899 477.04 71.9399 476.22 72.0799Z" fill="white"/>
<path d="M176.56 90.8998C178.07 90.8398 179.56 91.3198 180.76 92.2398C181.41 92.7098 182.32 92.5898 182.82 91.9598C183.28 91.3098 183.17 90.4098 182.56 89.8998C180.84 88.5798 178.73 87.8698 176.56 87.8998C171.42 87.9198 167.23 92.0498 167.14 97.1898C167.21 102.33 171.37 106.46 176.51 106.49C178.68 106.52 180.79 105.81 182.51 104.49C183.13 103.98 183.24 103.08 182.77 102.43C182.25 101.83 181.37 101.71 180.71 102.15C179.53 103.09 178.07 103.59 176.56 103.56C174.84 103.56 173.18 102.89 171.93 101.71C170.72 100.53 170.05 98.9198 170.05 97.2298C170.05 95.5498 170.74 93.9398 171.93 92.7498C173.18 91.5698 174.84 90.9098 176.56 90.8998Z" fill="white"/>
<path d="M189.67 91.7798C189.67 91.7798 189.68 91.7798 189.69 91.7798C190.46 91.7698 191.07 91.1398 191.06 90.3698V89.8298C191.06 89.8298 191.06 89.7998 191.06 89.7898C191.05 89.0298 190.43 88.4298 189.67 88.4398C188.9 88.4398 188.28 89.0598 188.28 89.8298V90.3698C188.28 91.1398 188.9 91.7698 189.67 91.7798Z" fill="white"/>
<path d="M189.67 93.6099C189.67 93.6099 189.64 93.6099 189.62 93.6099C188.86 93.6299 188.26 94.2699 188.28 95.0299V105.03C188.28 105.8 188.9 106.42 189.67 106.42C189.68 106.42 189.7 106.42 189.71 106.42C190.47 106.41 191.07 105.79 191.06 105.03V95.0299C191.06 95.0299 191.06 94.9699 191.06 94.9399C191.04 94.1899 190.42 93.5899 189.67 93.6099Z" fill="white"/>
<path d="M205.4 93.5898C204.65 93.5898 204.05 94.1998 204.06 94.9498V101.11C204.03 102.58 202.83 103.75 201.36 103.73C201.35 103.73 201.34 103.73 201.33 103.73C199.89 103.73 198.72 102.55 198.73 101.11V94.9498C198.73 94.1998 198.12 93.5998 197.37 93.5898C196.62 93.5998 196.02 94.1998 196 94.9498V101.11C196.02 104.06 198.41 106.44 201.36 106.46C204.33 106.46 206.75 104.08 206.79 101.11V94.9498C206.75 94.1998 206.15 93.6098 205.4 93.5898Z" fill="white"/>
<path d="M222.31 88.4299C221.54 88.4299 220.91 89.0599 220.91 89.8299V94.6699C219.9 93.9699 218.69 93.5899 217.46 93.5899C214.1 93.7199 211.41 96.4099 211.28 99.7699C211.14 103.32 213.91 106.32 217.46 106.46C218.71 106.45 219.93 106.06 220.96 105.35C221.1 105.99 221.66 106.45 222.31 106.45C223.08 106.45 223.7 105.83 223.71 105.07V89.8299C223.71 89.0599 223.08 88.4299 222.31 88.4299ZM219.88 102.6C219.25 103.25 218.37 103.61 217.46 103.6C216.55 103.61 215.67 103.25 215.03 102.6C213.65 101.16 213.65 98.8899 215.03 97.4499C215.66 96.7799 216.54 96.3999 217.46 96.3899C218.38 96.3899 219.26 96.7799 219.88 97.4499C221.26 98.8899 221.26 101.16 219.88 102.6Z" fill="white"/>
<path d="M238.57 93.55C237.92 93.57 237.36 94.04 237.23 94.68C236.24 93.95 235.04 93.56 233.81 93.55C232.14 93.55 230.55 94.25 229.43 95.48C228.28 96.71 227.65 98.33 227.68 100.01C227.66 101.69 228.29 103.31 229.43 104.54C230.57 105.74 232.15 106.43 233.81 106.42C235.04 106.42 236.24 106.03 237.23 105.31C237.37 105.94 237.92 106.4 238.57 106.42C239.32 106.42 239.93 105.8 239.94 105.05V94.94C239.94 94.18 239.33 93.56 238.57 93.55ZM236.21 102.7C235.58 103.34 234.72 103.7 233.82 103.7C232.92 103.71 232.05 103.35 231.42 102.7C230.77 101.97 230.41 101.03 230.42 100.05C230.4 99.07 230.76 98.12 231.42 97.4C232.02 96.71 232.9 96.32 233.82 96.34C234.73 96.34 235.6 96.72 236.21 97.4C236.88 98.12 237.23 99.07 237.21 100.05C237.22 101.03 236.87 101.98 236.21 102.7Z" fill="white"/>
<path d="M255.36 88.5399C254.58 88.4699 253.9 89.0499 253.84 89.8299V94.6699C252.83 93.9699 251.62 93.5899 250.39 93.5899C247.03 93.7199 244.34 96.4099 244.21 99.7699C244.07 103.32 246.84 106.32 250.39 106.46C251.64 106.45 252.86 106.06 253.89 105.35C254.01 106.04 254.61 106.54 255.31 106.51C256.08 106.48 256.68 105.84 256.65 105.07V89.8299C256.59 89.1399 256.05 88.5999 255.36 88.5399ZM252.81 102.6C252.76 102.66 252.7 102.71 252.65 102.76C251.31 104.01 249.22 103.93 247.97 102.6C246.59 101.16 246.59 98.8899 247.97 97.4499C248.6 96.7799 249.47 96.3899 250.39 96.3899C251.31 96.3899 252.19 96.7699 252.81 97.4499C254.19 98.8899 254.19 101.16 252.81 102.6Z" fill="white"/>
<path d="M280.08 88.5399C279.3 88.4699 278.62 89.0499 278.56 89.8299V94.6699C277.55 93.9699 276.34 93.5899 275.11 93.5899C271.75 93.7199 269.06 96.4099 268.93 99.7699C268.79 103.32 271.56 106.32 275.11 106.46C276.36 106.45 277.58 106.06 278.61 105.35C278.73 106.04 279.33 106.54 280.03 106.51C280.8 106.48 281.4 105.84 281.37 105.07V89.8299C281.31 89.1399 280.77 88.5999 280.08 88.5399ZM277.56 102.6C276.93 103.25 276.05 103.62 275.14 103.6C274.23 103.6 273.36 103.25 272.72 102.6C271.34 101.16 271.34 98.8899 272.72 97.4499C273.35 96.7799 274.22 96.3999 275.14 96.3899C276.06 96.3899 276.94 96.7699 277.56 97.4499C278.94 98.8899 278.94 101.16 277.56 102.6Z" fill="white"/>
<path d="M291.7 93.5898C288.19 93.6398 285.38 96.5099 285.41 100.02C285.39 103.53 288.21 106.41 291.72 106.46C293.42 106.52 295.07 105.91 296.33 104.76C296.79 104.3 296.79 103.55 296.33 103.09C295.76 102.63 294.93 102.66 294.39 103.16C293.6 103.67 292.66 103.9 291.72 103.81C290.79 103.72 289.91 103.31 289.25 102.65C288.8 102.18 288.49 101.59 288.37 100.95H296.56C297.2 101.01 297.78 100.58 297.9 99.9499C297.9 99.8699 297.9 99.7999 297.9 99.7199V99.5898C297.82 96.2299 295.06 93.5598 291.7 93.5898ZM288.22 98.7599C288.62 97.1599 290.05 96.0399 291.7 96.0299C293.41 96.0799 294.91 97.1599 295.51 98.7599H288.22Z" fill="white"/>
<path d="M323.59 88.7699C322.86 88.4699 322.03 88.8199 321.73 89.5399L316.73 101.46L311.73 89.5399C311.73 89.5399 311.73 89.5399 311.73 89.5299C311.43 88.8199 310.61 88.4999 309.9 88.7999C309.88 88.7999 309.87 88.8099 309.85 88.8199C309.15 89.1199 308.83 89.9199 309.13 90.6199L315.44 105.62C315.49 105.68 315.54 105.75 315.57 105.83C315.61 105.89 315.65 105.94 315.7 105.99V106.06C315.76 106.1 315.82 106.14 315.88 106.19L316.04 106.16C316.12 106.21 316.22 106.32 316.28 106.32C316.35 106.32 316.41 106.32 316.48 106.32H316.53C316.62 106.33 316.7 106.33 316.79 106.32C316.88 106.33 316.96 106.33 317.05 106.32H317.1C317.17 106.32 317.24 106.32 317.31 106.32C317.36 106.32 317.28 106.35 317.36 106.32C317.44 106.29 317.51 106.19 317.56 106.19H317.62L317.77 106.06C317.77 106.06 317.74 106.05 317.77 105.99C317.8 105.93 317.9 105.83 317.9 105.83C317.94 105.76 317.97 105.69 318 105.62L324.36 90.6199C324.66 89.8899 324.31 89.0599 323.59 88.7699Z" fill="white"/>
<path d="M336.77 93.55C336.12 93.57 335.56 94.04 335.43 94.68C334.44 93.95 333.24 93.56 332.01 93.55C330.34 93.55 328.75 94.25 327.63 95.48C326.49 96.71 325.86 98.33 325.88 100.01C325.87 101.69 326.49 103.31 327.63 104.54C328.77 105.74 330.35 106.43 332.01 106.42C333.24 106.42 334.44 106.03 335.43 105.31C335.57 105.94 336.12 106.4 336.77 106.42C337.52 106.42 338.13 105.8 338.14 105.05V94.94C338.14 94.18 337.53 93.56 336.77 93.55ZM335.4 100.05C335.42 101.03 335.06 101.97 334.41 102.7C333.78 103.34 332.92 103.7 332.02 103.7C331.12 103.71 330.25 103.35 329.62 102.7C328.96 101.97 328.61 101.03 328.62 100.05C328.6 99.07 328.96 98.12 329.62 97.4C330.22 96.71 331.1 96.32 332.02 96.34C332.93 96.34 333.8 96.72 334.41 97.4C335.08 98.12 335.43 99.07 335.41 100.05H335.4Z" fill="white"/>
<path d="M348.82 96.3398C349.7 96.3398 350.56 96.6398 351.26 97.1698C351.26 97.1698 351.26 97.1698 351.27 97.1698C351.87 97.6298 352.73 97.5098 353.19 96.8998C353.61 96.2898 353.48 95.4598 352.91 94.9898C351.74 94.0898 350.3 93.5898 348.82 93.5798C345.24 93.5798 342.32 96.4598 342.28 100.04C342.34 103.61 345.25 106.46 348.82 106.45C350.29 106.43 351.72 105.95 352.91 105.08C353.48 104.62 353.6 103.79 353.19 103.18C352.73 102.58 351.87 102.46 351.26 102.9C350.55 103.42 349.7 103.71 348.82 103.72C348.69 103.72 348.56 103.72 348.44 103.72C346.4 103.61 344.83 101.87 344.94 99.8298C345.05 97.7898 346.79 96.2198 348.83 96.3298L348.82 96.3398Z" fill="white"/>
<path d="M367.41 93.5499C366.75 93.5699 366.2 94.0399 366.07 94.6799C363.65 92.9099 360.28 93.2499 358.27 95.4799C357.12 96.7099 356.49 98.3299 356.52 100.01C356.5 101.69 357.13 103.31 358.27 104.54C359.41 105.74 360.99 106.42 362.64 106.42C363.87 106.42 365.07 106.03 366.07 105.31C366.2 105.95 366.76 106.41 367.41 106.42C368.16 106.41 368.76 105.8 368.77 105.05V94.9399C368.77 94.9399 368.77 94.9399 368.77 94.9299C368.77 94.1699 368.17 93.5599 367.41 93.5499ZM365.04 102.7C364.41 103.34 363.54 103.7 362.64 103.7C361.74 103.71 360.87 103.35 360.25 102.7C359.59 101.98 359.23 101.03 359.25 100.05C359.22 99.0699 359.58 98.1199 360.25 97.3999C360.85 96.7099 361.73 96.3199 362.64 96.3399C363.56 96.3399 364.43 96.7199 365.04 97.3999C365.71 98.1199 366.06 99.0699 366.04 100.05C366.05 101.03 365.7 101.98 365.04 102.7Z" fill="white"/>
<path d="M379.46 96.3398C380.34 96.3398 381.2 96.6398 381.91 97.1698C381.91 97.1698 381.91 97.1698 381.92 97.1698C382.52 97.6298 383.38 97.5098 383.84 96.8998C384.25 96.2798 384.13 95.4598 383.55 94.9898C382.38 94.0798 380.94 93.5898 379.46 93.5798C375.88 93.5798 372.97 96.4598 372.92 100.04C372.98 103.61 375.89 106.46 379.46 106.45C380.93 106.43 382.36 105.95 383.55 105.08C384.13 104.62 384.25 103.79 383.84 103.18C383.38 102.58 382.52 102.46 381.91 102.9C381.2 103.43 380.34 103.71 379.46 103.72C379.33 103.72 379.2 103.72 379.08 103.72C377.04 103.61 375.47 101.87 375.58 99.8298C375.69 97.7898 377.43 96.2198 379.47 96.3298L379.46 96.3398Z" fill="white"/>
<path d="M389.94 91.7798C389.94 91.7798 389.95 91.7798 389.96 91.7798C390.73 91.7698 391.34 91.1398 391.33 90.3698V89.8298C391.33 89.8298 391.33 89.7998 391.33 89.7898C391.32 89.0298 390.7 88.4298 389.94 88.4398C389.17 88.4398 388.55 89.0598 388.55 89.8298V90.3698C388.55 91.1398 389.17 91.7698 389.94 91.7798Z" fill="white"/>
<path d="M389.94 93.6099C389.94 93.6099 389.91 93.6099 389.89 93.6099C389.13 93.6299 388.53 94.2699 388.55 95.0299V105.03C388.55 105.8 389.17 106.42 389.94 106.42C389.95 106.42 389.97 106.42 389.98 106.42C390.74 106.41 391.34 105.79 391.33 105.03V95.0299C391.33 95.0299 391.33 94.9699 391.33 94.9399C391.31 94.1899 390.69 93.5899 389.94 93.6099Z" fill="white"/>
<path d="M401.37 93.54C399.68 93.55 398.08 94.28 396.95 95.54C395.81 96.77 395.17 98.38 395.17 100.05C395.14 101.74 395.78 103.36 396.95 104.58C398.08 105.84 399.68 106.57 401.37 106.58C403.03 106.58 404.6 105.84 405.67 104.58C406.86 103.38 407.52 101.74 407.48 100.05C407.48 98.37 406.84 96.75 405.67 95.54C404.6 94.28 403.03 93.55 401.37 93.54ZM403.71 102.78C403.08 103.41 402.23 103.77 401.34 103.78C400.42 103.78 399.53 103.43 398.87 102.78C398.25 102.01 397.92 101.04 397.95 100.05H397.98C397.95 99.08 398.26 98.13 398.87 97.37C399.54 96.75 400.42 96.39 401.34 96.37C402.23 96.4 403.07 96.76 403.71 97.37C404.38 98.1 404.73 99.06 404.71 100.05C404.74 101.05 404.38 102.03 403.71 102.78Z" fill="white"/>
<path d="M417.21 93.5898C416.24 93.5898 415.3 93.8698 414.48 94.3798C414.25 93.8998 413.76 93.5898 413.22 93.5898C413.22 93.5898 413.21 93.5898 413.2 93.5898C412.45 93.5898 411.85 94.1998 411.86 94.9498V105.05C411.86 105.05 411.86 105.05 411.86 105.06C411.86 105.81 412.47 106.42 413.22 106.42C413.88 106.42 414.45 105.95 414.59 105.31C414.63 105.23 414.65 105.14 414.64 105.05V98.8998C414.64 98.8998 414.64 98.8799 414.64 98.8699C414.64 97.4499 415.79 96.2999 417.21 96.2999C418.67 96.2799 419.87 97.4398 419.89 98.8998V105.05C419.9 105.8 420.5 106.4 421.25 106.42C421.25 106.42 421.25 106.42 421.26 106.42C422.01 106.41 422.6 105.8 422.59 105.05V98.8998C422.55 95.9598 420.15 93.5898 417.21 93.5898Z" fill="white"/>
<path d="M433.02 93.5898C429.52 93.6398 426.71 96.5199 426.74 100.02C426.72 103.54 429.53 106.41 433.05 106.46C434.75 106.52 436.4 105.91 437.66 104.76C437.66 104.76 437.67 104.75 437.68 104.74C438.13 104.28 438.13 103.54 437.66 103.09C437.09 102.62 436.26 102.65 435.73 103.16C434.94 103.67 433.99 103.9 433.05 103.81C432.12 103.72 431.24 103.31 430.58 102.65C430.13 102.18 429.83 101.59 429.71 100.95H437.89C438.53 101.01 439.11 100.58 439.23 99.9499C439.24 99.8699 439.24 99.7999 439.23 99.7199V99.5898C439.14 96.2299 436.38 93.5598 433.02 93.5898ZM429.55 98.7599C429.95 97.1599 431.38 96.0399 433.02 96.0299C434.73 96.0799 436.23 97.1599 436.83 98.7599H429.55Z" fill="white"/>
<path d="M451.92 100.61C451.48 99.93 450.84 99.4 450.09 99.1C449.33 98.74 448.53 98.48 447.7 98.35C447.04 98.27 446.4 98.06 445.82 97.73C445.7 97.67 445.6 97.59 445.53 97.48C445.49 97.42 445.47 97.34 445.48 97.27C445.51 97.02 445.67 96.8 445.89 96.68C446.35 96.37 446.89 96.21 447.44 96.22C448.31 96.31 449.14 96.66 449.81 97.22C449.81 97.22 449.83 97.23 449.84 97.24C450.46 97.65 451.3 97.48 451.71 96.86C452.1 96.22 451.92 95.38 451.3 94.95C450.19 94.08 448.84 93.59 447.44 93.54C446.31 93.54 445.2 93.89 444.27 94.54C443.35 95.19 442.79 96.24 442.75 97.37C442.75 97.94 442.9 98.5 443.19 98.99C443.63 99.64 444.25 100.16 444.97 100.49C445.69 100.8 446.44 101.02 447.21 101.16C447.94 101.27 448.63 101.51 449.27 101.88C449.48 102.01 449.61 102.11 449.61 102.19C449.66 102.26 449.69 102.35 449.68 102.44C449.65 102.76 449.48 103.04 449.22 103.22C448.69 103.54 448.09 103.7 447.47 103.71C446.43 103.65 445.43 103.25 444.64 102.57C444.62 102.56 444.61 102.54 444.59 102.53C444 102.08 443.16 102.19 442.71 102.78C442.33 103.32 442.39 104.06 442.86 104.53C444.14 105.62 445.76 106.25 447.44 106.31C448.63 106.32 449.8 105.97 450.79 105.31C451.78 104.63 452.39 103.51 452.41 102.31C452.41 101.71 452.23 101.12 451.92 100.61Z" fill="white"/>
<path d="M75.0093 94.0105C74.4306 94.0105 59.5979 94.6228 51 95C45.3472 97.8189 41.7337 100.539 41 101H42L51.9127 100.518L51.8611 100.549L84 99.1347C81.9332 96.6302 78.8329 94 75.0093 94V94.0105Z" fill="#EB5951"/>
<path d="M60.2 70.6V13.71C59.58 13.05 59.19 12.71 59.19 12.71C59.19 12.71 57.83 52.71 28.6 89.71L50.08 88.77C53.82 82.93 57.2 76.86 60.2 70.61V70.6Z" fill="#CAE4DC"/>
<path d="M63.44 0.0299295C47.06 -0.47007 31.19 5.74993 19.52 17.2499C7.07 29.3699 0.03 46.0099 0 63.3899C0.04 98.3699 28.39 126.71 63.37 126.75C97.98 126.75 125.82 98.8999 126.73 63.4499C127.64 28.4399 100.44 1.16993 63.44 0.0299295ZM122.18 63.3299C121.63 85.8599 109.39 105.04 91.46 114.95C91.42 114.97 91.38 114.99 91.34 115.02C90.61 115.42 89.87 115.81 89.12 116.18C89.04 116.22 88.95 116.26 88.87 116.31C88.17 116.65 87.46 116.98 86.75 117.3C86.62 117.36 86.49 117.42 86.36 117.47C85.69 117.76 85.01 118.03 84.33 118.3C84.15 118.37 83.98 118.44 83.8 118.5C83.16 118.74 82.51 118.97 81.86 119.19C81.65 119.26 81.43 119.34 81.22 119.41C80.6 119.61 79.97 119.8 79.33 119.98C79.09 120.05 78.85 120.12 78.6 120.19C77.96 120.36 77.32 120.52 76.67 120.67C76.43 120.73 76.2 120.79 75.96 120.84C75.08 121.03 74.19 121.21 73.3 121.36C72.32 121.09 71.35 120.84 70.38 120.6C70.02 120.51 69.66 120.42 69.3 120.33C69.04 120.27 68.78 120.21 68.52 120.14C67.97 120.01 67.41 119.87 66.86 119.75C66.5 119.67 66.14 119.59 65.77 119.51C65.06 119.35 64.34 119.21 63.62 119.07C63.53 119.05 63.44 119.03 63.35 119.01C62.98 118.94 62.61 118.87 62.23 118.8C61.39 118.64 60.55 118.5 59.7 118.36C59.53 118.33 59.36 118.3 59.19 118.27C58.19 118.12 57.18 117.98 56.17 117.86C56.12 117.86 56.08 117.85 56.03 117.84C56 117.84 55.97 117.84 55.95 117.84C55.1 117.74 54.25 117.65 53.4 117.56C53.13 117.53 52.86 117.51 52.58 117.48C51.95 117.42 51.32 117.37 50.69 117.33C50.53 117.32 50.36 117.31 50.2 117.29C49.97 117.27 49.74 117.25 49.5 117.24C49.08 117.21 48.67 117.19 48.25 117.17C46.77 117.09 45.3 117.03 43.82 117C43.68 117 43.53 117 43.39 117C42.1 116.98 40.8 116.97 39.52 116.98C39.4 116.98 39.28 116.98 39.16 116.98C38.2 116.54 37.26 116.08 36.32 115.59C36.1 115.48 35.89 115.36 35.68 115.24C34.96 114.85 34.25 114.46 33.54 114.04C33.44 113.98 33.34 113.93 33.25 113.88H33.27C28.77 111.18 24.65 107.92 21.04 104.17C30.14 101.58 48.2 100.9 68.96 106.14C74.49 107.54 79.9 109.14 85.15 110.81C87.44 110.06 89.6 108.97 91.17 107.39L92.05 106.49L100.73 97.7199L18.6 101.28C9.6 90.9599 4.58 78.1899 4.57 63.4299C4.61 47.2899 11.15 31.8499 22.71 20.5899C33.07 10.3699 47.03 4.61993 61.58 4.58993L63.32 4.61993C80.16 5.13993 95.4 11.4599 106.2 22.3699C116.94 33.2599 122.73 48.0799 122.2 63.3699L122.18 63.3299Z" fill="#0099BC"/>
<path d="M94.88 58.5C87.64 17.83 59.19 12.71 59.19 12.71C59.19 12.71 76.29 27.65 67.02 54.27C61.12 70.8 52.68 86.32 42.02 100.27C42.02 100.27 67.14 84.26 79.25 88.4C90.07 92.1 92.64 97.9 92.64 97.9C92.64 97.9 98.92 81.24 94.88 58.5Z" fill="#FFD125"/>
</svg>
