<?xml version="1.0" encoding="UTF-8"?>
<svg id="Calque_1_Image" data-name="Calque 1 Image" xmlns="http://www.w3.org/2000/svg" viewBox="0 0 420.04 58.77">
  <defs>
    <style>
      .cls-1 {
        fill: #009642;
      }

      .cls-2 {
        fill: #009643;
      }

      .cls-3 {
        fill: #009542;
      }

      .cls-4 {
        fill: #fcfdfd;
      }

      .cls-5 {
        fill: #fefefe;
      }

      .cls-6 {
        fill: #b5c2c9;
      }

      .cls-7 {
        fill: #b6c2c9;
      }
    </style>
  </defs>
  <circle class="cls-6" cx="256.3" cy="8.18" r="8.18"/>
  <g>
    <path class="cls-7" d="m420.04,46.14c-1.01,1.76-2.27,3.26-4.4,3.63-3.32.58-6.5.47-8.92-2.34-.48-.56-.78-.53-1.34-.1-4.14,3.14-8.74,3.46-13.49,1.83-2.72-.93-4.42-2.9-4.42-5.96,0-3.12,1.76-5.07,4.41-6.32,2.71-1.28,5.71-1.55,8.55-2.37.15-.04.31-.06.46-.1,4.45-1.23,5.65-3.25,3.97-8.53-.6-1.89-2.25-2.67-4.17-2.8-2.01-.14-3.56.54-4.45,2.45-.28.61-.58,1.22-.93,1.79-.81,1.31-2.63,1.82-4.34,1.27-1.69-.54-2.44-1.6-2.35-3.25.06-1.01.66-1.68,1.41-2.22,1.56-1.11,3.39-1.47,5.22-1.81,4.17-.78,8.28-.47,12.28.91,3.92,1.36,5.07,3.08,5.1,7.27.03,4.75,0,9.51.04,14.26.02,1.92.78,2.88,2.33,3.02.76.07,1.59,0,2.07-.65.88-1.2,1.83-1.29,2.97-.45v.48Zm-14.49-7.74c0-1.1-.02-1.89,0-2.68.02-.67-.15-.86-.81-.51-1.93,1-3.9,1.92-5.82,2.93-1.75.92-3.03,2.27-3.51,4.25-.57,2.35.75,4.49,3.1,5.02,2.46.55,5.32-1.13,6.29-3.72.68-1.81.79-3.69.73-5.29Z"/>
    <path class="cls-1" d="m128.34,29.53c.92-3.35,1.84-6.69,2.75-10.04,1.61-5.91,3.23-11.82,4.81-17.74.24-.9.58-1.27,1.6-1.26,5.47.06,10.94.03,16.41.03.2,0,.4-.01.59,0,.38.04.93,0,.91.52-.02.55-.58.41-.95.42-.95.03-1.91.11-2.85.02-1.1-.1-1.35.35-1.29,1.36.08,1.46.02,2.93.02,4.4,0,13.24,0,26.47,0,39.71,0,1.97-.14,1.66,1.74,1.7.79.01,1.58.02,2.38.04.3,0,.6.11.63.43.03.4-.32.5-.65.53-.24.02-.47.02-.71.02-6.78,0-13.55,0-20.33,0-.55,0-1.48.21-1.47-.52.02-.7.96-.44,1.51-.47.95-.06,1.9-.05,2.85,0,.67.03.95-.24.88-.91-.01-.12,0-.24,0-.36,0-13.71,0-27.42,0-41.14,0-.31-.03-.63-.24-.99-.42,1.54-.84,3.07-1.24,4.61-3.33,12.65-6.66,25.31-9.99,37.96q-.48,1.81-2.3,1.82c-.95,0-1.9-.04-2.85.01-.92.05-1.36-.33-1.55-1.23-1-4.76-2.05-9.51-3.07-14.27-2.01-9.35-4.01-18.7-6.04-28.13-.4.36-.25.75-.25,1.09,0,12.56-.01,25.13,0,37.69,0,2.75.82,3.58,3.6,3.72.63.03,1.27.03,1.9.09.33.03.82,0,.82.49,0,.55-.52.49-.9.52-.2.02-.4,0-.59,0-3.49,0-6.97,0-10.46,0-.16,0-.32,0-.48,0-.32-.02-.73-.04-.78-.38-.06-.4.39-.42.68-.5.65-.18,1.31-.29,1.95-.49,1.6-.52,2.18-1.3,2.22-2.95.02-.67,0-1.35,0-2.02,0-13.47-.01-26.95.02-40.42,0-1.08-.26-1.51-1.38-1.41-.86.08-1.74,0-2.61-.03-.28,0-.59-.05-.59-.43,0-.37.32-.42.59-.47.27-.05.55-.04.83-.04,5.43,0,10.86.02,16.29-.02.86,0,1.22.21,1.41,1.12,1.96,9.32,3.98,18.62,5.99,27.93.08,0,.15-.01.23-.02Z"/>
    <path class="cls-1" d="m60.97,49.67c-5.98,0-11.97,0-17.95-.01-.59,0-1.57.23-1.57-.55,0-.63.99-.39,1.54-.43.83-.06,1.67-.07,2.49,0,.87.07,1.06-.31,1.06-1.11-.02-14.98-.02-29.96,0-44.94,0-.91-.29-1.18-1.16-1.13-.99.05-1.98,0-2.97-.03-.31,0-.71-.04-.7-.46,0-.4.42-.43.72-.47.31-.04.63-.02.95-.02,11.85,0,23.7.02,35.55-.03,1.14,0,1.38.34,1.37,1.4-.05,5.15-.02,10.3-.02,15.46,0,.28-.02.56,0,.83.03.58-.22.89-.81.93-.62.05-.85-.29-.9-.85-.13-1.46-.36-2.91-.77-4.32-1.07-3.63-2.97-6.8-5.52-9.58-1.6-1.74-3.53-2.76-5.95-2.77-1.66,0-3.33-.04-4.99-.1-.79-.03-1.02.31-1.02,1.06.02,6.86.02,13.71,0,20.57,0,.83.22,1.09,1.11.99,5.16-.61,7.98-3.61,8.14-8.78.02-.79.02-1.58.03-2.38,0-.58.27-.86.87-.87.61-.01.87.27.86.85,0,1.03,0,2.06,0,3.09,0,6.58,0,13.16,0,19.74,0,.45.17.99-.32,1.31-.66.42-1.38-.05-1.4-.93-.04-1.42.04-2.85-.29-4.26-.76-3.27-3.53-6.06-6.6-6.61-1.94-.35-2.37,0-2.37,1.93,0,6.7.02,13.4-.02,20.09,0,1.02.25,1.32,1.32,1.36,6.46.21,10.96-2.88,13.98-8.33,1.71-3.09,3-6.39,2.78-10.05-.05-.76.21-1.23,1.03-1.26.9-.03.88.59.88,1.21,0,6.1-.02,12.21.02,18.31,0,.89-.25,1.14-1.14,1.14-6.06-.04-12.13-.02-18.19-.02h0Z"/>
    <path class="cls-1" d="m226.92,25.1c0,7.41.03,14.82-.03,22.23,0,1.17.39,1.4,1.42,1.34,1.22-.06,2.45,0,3.68.04.31,0,.73.06.75.42.01.36-.41.44-.72.49-.31.05-.63.04-.95.04-7.61,0-15.22,0-22.83,0-.59,0-1.56.23-1.55-.57,0-.64.99-.4,1.55-.42,1.19-.05,2.38-.08,3.56,0,1.07.08,1.32-.32,1.32-1.35-.04-11.14-.02-22.27-.02-33.41,0-3.76-.03-7.53.02-11.29.01-.91-.3-1.14-1.16-1.14-2.23,0-3.96.87-5.27,2.68-2.39,3.31-3.93,7.03-5.15,10.89-.62,1.96-1.32,3.9-1.39,5.99-.02.59-.33.85-.9.85-.56,0-.91-.24-.96-.82-.02-.28-.03-.55-.03-.83,0-6.1.03-12.21-.03-18.31-.01-1.16.35-1.45,1.48-1.44,13.51.04,27.03.04,40.54,0,1.11,0,1.48.21,1.47,1.41-.07,6.18-.03,12.36-.02,18.55,0,.71.03,1.42-.96,1.41-.9-.01-.94-.68-.92-1.35.06-2.15-.75-4.11-1.43-6.09-1.31-3.8-3.02-7.37-5.44-10.62-1.37-1.83-3.12-2.4-5.27-2.31-.78.03-.77.47-.77,1.02,0,3.8,0,7.61,0,11.41,0,3.73,0,7.45,0,11.18h0Z"/>
    <path class="cls-2" d="m303.35,35.07c0-.32,0-.63,0-.95,0-9.63,0-19.26,0-28.89,0-2.54-.8-3.38-3.35-3.58-.79-.06-1.58-.09-2.37-.16-.28-.02-.57-.09-.55-.47.02-.35.3-.44.58-.48.27-.04.55-.02.83-.02,3.53,0,7.05,0,10.58,0,.28,0,.56-.02.83.03.22.04.5.09.51.39.01.32-.28.37-.49.41-.93.2-1.85.4-2.75.71-1.01.34-1.59,1.03-1.74,2.05-.11.7-.17,1.42-.17,2.13,0,13.79,0,27.58.01,41.38,0,.44-.04.87-.01,1.31.03.57-.23.76-.77.76-3.01-.01-6.02-.02-9.04,0-.78,0-.85-.56-1.04-1.07-2.99-8.12-5.98-16.24-8.97-24.37-2.09-5.67-4.17-11.35-6.27-17.02-.14-.38-.16-.84-.65-1.18v1.23c0,12.33,0,24.65,0,36.98,0,3.54.67,4.22,4.2,4.34.51.02,1.03.05,1.54.1.29.02.6.13.6.45,0,.38-.32.51-.67.53-.2.01-.4,0-.59,0-3.57,0-7.13,0-10.7,0-.24,0-.48.01-.71-.03-.22-.04-.51-.06-.54-.36-.03-.32.26-.37.47-.43.68-.19,1.38-.35,2.07-.53,1.47-.4,2.05-1.04,2.22-2.55.08-.67.11-1.34.11-2.02,0-13.63-.02-27.27,0-40.9,0-1.02-.22-1.45-1.31-1.34-.82.08-1.66,0-2.49-.03-.28,0-.62-.05-.65-.38-.03-.4.33-.49.65-.54.23-.03.47-.02.71-.02,5.27,0,10.54.02,15.81-.02.87,0,1.24.3,1.53,1.09,3.91,10.73,7.86,21.45,11.8,32.17.17.46.36.92.54,1.38.08-.02.16-.04.24-.06Z"/>
    <path class="cls-6" d="m338.53,24.48c2.56-1.82,5.19-3.02,8.16-3.4,4.17-.54,8,.02,10.9,3.45.56.66.94.55,1.53.1,3.56-2.76,7.59-4.02,12.09-3.68,2.83.21,5.42,1.02,7.47,3.15,1.24,1.3,1.9,2.8,1.91,4.59,0,3.61-.01,7.21.02,10.82.01,1.58.1,3.16.2,4.74.07,1.11.61,1.93,1.66,2.41.73.33,1.48.62,2.27.65,1,.04,1.13.55,1.13,1.39,0,1-.67.79-1.22.79-5.15,0-10.3,0-15.45,0-.53,0-1.04.05-1.01-.76.03-.65-.06-1.22.86-1.39,3.84-.68,4.49-1.31,4.57-5.24.09-4.43.24-8.87-.17-13.3-.27-2.88-2.32-4.9-5.22-5.01-.99-.04-2-.08-2.96.09-3.28.6-5.2,2.73-5.57,6.34-.47,4.57-.42,9.17-.06,13.75.15,1.86.83,2.57,2.61,3.05.46.13.92.27,1.39.29,1.02.04,1.07.67,1.05,1.46-.02.94-.69.7-1.18.7-5.11.01-10.22,0-15.33,0-.6,0-1.18.1-1.17-.85,0-.82.22-1.2,1.09-1.31,3.36-.41,3.97-1.12,4.22-4.52.34-4.59.26-9.18-.05-13.76-.29-4.27-3.63-5.59-6.94-5.14-5.23.7-6.87,3.84-7.01,8.6-.16,5.86-.07,11.73-.01,17.59.03,2.82.91,3.75,4.02,4.29.98.17,1.21.53,1.2,1.44-.03,2.91,0,2.91-2.9,2.91-4.52,0-9.03-.03-13.55.02-1.02.01-1.32-.31-1.23-1.28.09-.9-.22-1.97.16-2.68.39-.73,1.58-.35,2.41-.58,1.74-.5,2.53-1.58,2.72-3.7.21-2.33.19-4.66.19-7,0-4.12.02-8.24,0-12.36,0-1.26-.09-2.53-.22-3.79-.21-2.04-1.46-3.11-3.93-3.31-.73-.06-1.04-.21-1.04-1.01,0-.83.34-1.09,1.11-1.17,2.95-.28,5.89-.58,8.83-.94,1.1-.13,1.83.02,1.95,1.31.07.7.32,1.38.52,2.22Z"/>
    <path class="cls-3" d="m19.16,49.67c-5.9,0-11.81,0-17.71,0-.55,0-1.46.19-1.45-.56,0-.6.91-.35,1.43-.44.12-.02.24,0,.36,0q3.06-.01,3.06-3.01c-.01-14.26-.04-28.52-.01-42.79,0-1.11-.3-1.47-1.4-1.38-.94.08-1.9-.02-2.85-.04-.25,0-.55-.13-.58-.34-.05-.32.28-.46.55-.51.35-.06.71-.07,1.06-.07,6.89,0,13.79,0,20.68,0,.55,0,1.46-.23,1.47.51,0,.67-.89.39-1.39.43-.71.06-1.42.03-2.14.03q-1.58,0-1.58,1.53c0,3.41,0,6.81,0,10.22,0,11.29,0,22.58,0,33.87,0,1.56,0,1.56,1.57,1.51,1.38-.05,2.78-.03,4.15-.2,2.73-.35,4.83-1.8,6.58-3.88,3.25-3.87,4.9-8.44,6-13.27.07-.31.15-.62.18-.93.07-.65.43-.91,1.04-.83.63.08.69.52.67,1.05-.12,4.2-.24,8.39-.35,12.59-.05,1.74-.14,3.49-.12,5.23.01.95-.25,1.3-1.27,1.29-5.98-.05-11.96-.02-17.95-.02,0,0,0,0,0,.01Z"/>
    <path class="cls-1" d="m187.48,49.67c-3.01,0-6.02,0-9.03,0-.32,0-.64,0-.95-.03-.32-.04-.69-.14-.65-.53.03-.32.36-.38.65-.39.79-.02,1.58-.07,2.37-.05.68.02.82-.28.7-.87-.51-2.52-1.02-5.04-1.52-7.56-.1-.52-.39-.69-.91-.69-3.45.02-6.89.02-10.34,0-.64,0-.91.24-1.04.85-.31,1.35-.7,2.68-1.03,4.02-.52,2.11.25,3.35,2.38,3.84.77.18,1.56.24,2.34.38.26.05.6.13.59.48-.01.33-.34.42-.6.48-.31.06-.63.07-.94.07-3.33,0-6.66,0-9.98,0-.32,0-.64,0-.95-.05-.27-.05-.56-.17-.57-.51-.01-.36.3-.43.56-.5.19-.05.39-.06.59-.08,2.95-.36,4.24-1.45,5.02-4.38,1.93-7.22,3.82-14.44,5.73-21.67,1.76-6.69,3.53-13.37,5.27-20.07.22-.84.54-1.26,1.51-1.2,1.66.09,3.33.08,4.99,0,.93-.04,1.31.27,1.53,1.16,1.73,7.15,3.5,14.28,5.27,21.42,1.95,7.87,3.94,15.72,5.84,23.6.25,1.05.7,1.37,1.68,1.28.47-.05.95,0,1.42.03.34.03.83.02.81.48-.02.41-.51.43-.86.47-.35.04-.71.02-1.07.02-2.93,0-5.86,0-8.8,0Zm-13.61-35.4c-.17.21-.25.26-.27.32-2.05,7.76-4.09,15.52-6.16,23.27-.2.73.18.7.65.7,3.25,0,6.5,0,9.75,0,.58,0,.85-.07.7-.8-1.57-7.79-3.1-15.59-4.67-23.49Z"/>
    <path class="cls-3" d="m248.77,33.72c0-4.4.03-8.79-.02-13.19-.01-1.11.24-1.14,1.16-.65,4.15,2.2,8.32,2.19,12.47-.05,1.09-.59,1.12-.57,1.12.72,0,8.75.02,17.51-.02,26.26,0,1.07.27,1.5,1.39,1.4.78-.07,1.58,0,2.36.11.43.05.87.29.87.83,0,.53-.43.75-.87.82-.58.09-1.18.13-1.77.11-6.46-.17-12.91.03-19.36.02-.59,0-1.19-.06-1.76-.17-.38-.08-.8-.3-.78-.77.03-.58.49-.82.98-.85.95-.06,1.91-.12,2.85-.04,1.06.09,1.44-.19,1.42-1.34-.07-4.4-.03-8.79-.03-13.19Z"/>
    <path class="cls-6" d="m321.86,46.5c0,1.98-1.68,3.63-3.65,3.59-1.92-.04-3.53-1.7-3.52-3.62.01-1.97,1.56-3.45,3.6-3.45,2.05,0,3.56,1.49,3.56,3.48Z"/>
    <path class="cls-5" d="m405.55,38.4c.05,1.6-.05,3.48-.73,5.29-.97,2.59-3.83,4.27-6.29,3.72-2.35-.53-3.67-2.67-3.1-5.02.48-1.98,1.76-3.33,3.51-4.25,1.92-1.01,3.89-1.93,5.82-2.93.66-.34.83-.15.81.51-.03.79,0,1.58,0,2.68Z"/>
    <path class="cls-4" d="m173.86,14.27c1.56,7.9,3.1,15.7,4.67,23.49.15.73-.12.8-.7.8-3.25-.01-6.5,0-9.75,0-.47,0-.85.04-.65-.7,2.07-7.75,4.11-15.51,6.16-23.27.02-.07.09-.12.27-.32Z"/>
  </g>
</svg>